<mxfile host="app.diagrams.net" agent="Mozilla/5.0 (Windows NT 10.0; Win64; x64) AppleWebKit/537.36 (KHTML, like Gecko) Chrome/137.0.0.0 Safari/537.36" version="27.1.1">
  <diagram name="Page-1" id="kvSpXP5YtNpuujaqsHah">
    <mxGraphModel dx="1042" dy="527" grid="1" gridSize="10" guides="1" tooltips="1" connect="1" arrows="1" fold="1" page="1" pageScale="1" pageWidth="827" pageHeight="1169" math="0" shadow="0">
      <root>
        <mxCell id="0" />
        <mxCell id="1" parent="0" />
        <mxCell id="rHQZIwRg0L-bGv6IgCnG-2" value="顯示介紹頁面" style="whiteSpace=wrap;strokeWidth=2;fontSize=14;" vertex="1" parent="1">
          <mxGeometry x="439" y="124" width="126" height="46" as="geometry" />
        </mxCell>
        <mxCell id="rHQZIwRg0L-bGv6IgCnG-3" value="用戶身份判斷" style="rhombus;strokeWidth=2;whiteSpace=wrap;" vertex="1" parent="1">
          <mxGeometry x="427" y="228" width="150" height="150" as="geometry" />
        </mxCell>
        <mxCell id="rHQZIwRg0L-bGv6IgCnG-4" value="註冊流程" style="whiteSpace=wrap;strokeWidth=2;" vertex="1" parent="1">
          <mxGeometry x="287" y="450" width="124" height="54" as="geometry" />
        </mxCell>
        <mxCell id="rHQZIwRg0L-bGv6IgCnG-5" value="登入流程" style="whiteSpace=wrap;strokeWidth=2;" vertex="1" parent="1">
          <mxGeometry x="535" y="450" width="124" height="54" as="geometry" />
        </mxCell>
        <mxCell id="rHQZIwRg0L-bGv6IgCnG-6" value="填寫初步表單" style="whiteSpace=wrap;strokeWidth=2;" vertex="1" parent="1">
          <mxGeometry x="271" y="554" width="156" height="54" as="geometry" />
        </mxCell>
        <mxCell id="rHQZIwRg0L-bGv6IgCnG-7" value="建立個人檔案" style="whiteSpace=wrap;strokeWidth=2;" vertex="1" parent="1">
          <mxGeometry x="271" y="690" width="156" height="54" as="geometry" />
        </mxCell>
        <mxCell id="rHQZIwRg0L-bGv6IgCnG-8" value="用戶管理服務處理" style="whiteSpace=wrap;strokeWidth=2;" vertex="1" parent="1">
          <mxGeometry x="408" y="849" width="188" height="54" as="geometry" />
        </mxCell>
        <mxCell id="rHQZIwRg0L-bGv6IgCnG-9" value="身份驗證" style="whiteSpace=wrap;strokeWidth=2;" vertex="1" parent="1">
          <mxGeometry x="477" y="554" width="124" height="54" as="geometry" />
        </mxCell>
        <mxCell id="rHQZIwRg0L-bGv6IgCnG-10" value="驗證結果" style="rhombus;strokeWidth=2;whiteSpace=wrap;" vertex="1" parent="1">
          <mxGeometry x="538" y="658" width="118" height="118" as="geometry" />
        </mxCell>
        <mxCell id="rHQZIwRg0L-bGv6IgCnG-11" value="載入個人化首頁" style="whiteSpace=wrap;strokeWidth=2;" vertex="1" parent="1">
          <mxGeometry x="416" y="953" width="172" height="54" as="geometry" />
        </mxCell>
        <mxCell id="rHQZIwRg0L-bGv6IgCnG-12" value="顯示學習進度概覽" style="whiteSpace=wrap;strokeWidth=2;" vertex="1" parent="1">
          <mxGeometry x="408" y="1057" width="188" height="54" as="geometry" />
        </mxCell>
        <mxCell id="rHQZIwRg0L-bGv6IgCnG-13" value="選擇功能" style="rhombus;strokeWidth=2;whiteSpace=wrap;" vertex="1" parent="1">
          <mxGeometry x="443" y="1161" width="118" height="118" as="geometry" />
        </mxCell>
        <mxCell id="rHQZIwRg0L-bGv6IgCnG-14" value="閱讀功能流程" style="whiteSpace=wrap;strokeWidth=2;" vertex="1" parent="1">
          <mxGeometry x="20" y="1351" width="156" height="54" as="geometry" />
        </mxCell>
        <mxCell id="rHQZIwRg0L-bGv6IgCnG-15" value="人物關係圖譜" style="whiteSpace=wrap;strokeWidth=2;" vertex="1" parent="1">
          <mxGeometry x="226" y="1351" width="156" height="54" as="geometry" />
        </mxCell>
        <mxCell id="rHQZIwRg0L-bGv6IgCnG-16" value="成就系統頁面" style="whiteSpace=wrap;strokeWidth=2;" vertex="1" parent="1">
          <mxGeometry x="432" y="1351" width="156" height="54" as="geometry" />
        </mxCell>
        <mxCell id="rHQZIwRg0L-bGv6IgCnG-17" value="紅學社功能" style="whiteSpace=wrap;strokeWidth=2;" vertex="1" parent="1">
          <mxGeometry x="638" y="1351" width="140" height="54" as="geometry" />
        </mxCell>
        <mxCell id="rHQZIwRg0L-bGv6IgCnG-18" value="用戶學習行為追蹤" style="whiteSpace=wrap;strokeWidth=2;" vertex="1" parent="1">
          <mxGeometry x="329" y="1455" width="156" height="54" as="geometry" />
        </mxCell>
        <mxCell id="rHQZIwRg0L-bGv6IgCnG-20" value="資料庫更新用戶資料" style="whiteSpace=wrap;strokeWidth=2;" vertex="1" parent="1">
          <mxGeometry x="329" y="1570" width="156" height="54" as="geometry" />
        </mxCell>
        <mxCell id="rHQZIwRg0L-bGv6IgCnG-21" value="繼續使用?" style="rhombus;strokeWidth=2;whiteSpace=wrap;" vertex="1" parent="1">
          <mxGeometry x="497" y="1790" width="124" height="124" as="geometry" />
        </mxCell>
        <mxCell id="rHQZIwRg0L-bGv6IgCnG-23" value="" style="curved=1;startArrow=none;endArrow=block;exitX=0.5;exitY=1;entryX=0.5;entryY=0;rounded=0;exitDx=0;exitDy=0;endFill=0;" edge="1" parent="1" source="rHQZIwRg0L-bGv6IgCnG-110" target="rHQZIwRg0L-bGv6IgCnG-2">
          <mxGeometry relative="1" as="geometry">
            <Array as="points" />
            <mxPoint x="502" y="74" as="sourcePoint" />
          </mxGeometry>
        </mxCell>
        <mxCell id="rHQZIwRg0L-bGv6IgCnG-24" value="" style="curved=1;startArrow=none;endArrow=block;exitX=0.5;exitY=1;entryX=0.5;entryY=0;rounded=0;" edge="1" parent="1" source="rHQZIwRg0L-bGv6IgCnG-2" target="rHQZIwRg0L-bGv6IgCnG-3">
          <mxGeometry relative="1" as="geometry">
            <Array as="points" />
          </mxGeometry>
        </mxCell>
        <mxCell id="rHQZIwRg0L-bGv6IgCnG-25" value="新用戶" style="curved=1;startArrow=none;endArrow=block;exitX=0;exitY=0.86;entryX=0.5;entryY=0.01;rounded=0;" edge="1" parent="1" source="rHQZIwRg0L-bGv6IgCnG-3" target="rHQZIwRg0L-bGv6IgCnG-4">
          <mxGeometry relative="1" as="geometry">
            <Array as="points">
              <mxPoint x="349" y="414" />
            </Array>
          </mxGeometry>
        </mxCell>
        <mxCell id="rHQZIwRg0L-bGv6IgCnG-26" value="既有用戶" style="curved=1;startArrow=none;endArrow=block;exitX=0.93;exitY=1;entryX=0.5;entryY=0.01;rounded=0;" edge="1" parent="1" source="rHQZIwRg0L-bGv6IgCnG-3" target="rHQZIwRg0L-bGv6IgCnG-5">
          <mxGeometry relative="1" as="geometry">
            <Array as="points">
              <mxPoint x="597" y="414" />
            </Array>
          </mxGeometry>
        </mxCell>
        <mxCell id="rHQZIwRg0L-bGv6IgCnG-27" value="" style="curved=1;startArrow=none;endArrow=block;exitX=0.5;exitY=1.01;entryX=0.5;entryY=0.01;rounded=0;" edge="1" parent="1" source="rHQZIwRg0L-bGv6IgCnG-4" target="rHQZIwRg0L-bGv6IgCnG-6">
          <mxGeometry relative="1" as="geometry">
            <Array as="points" />
          </mxGeometry>
        </mxCell>
        <mxCell id="rHQZIwRg0L-bGv6IgCnG-28" value="" style="curved=1;startArrow=none;endArrow=block;exitX=0.5;exitY=1.01;entryX=0.5;entryY=0.01;rounded=0;" edge="1" parent="1" source="rHQZIwRg0L-bGv6IgCnG-6" target="rHQZIwRg0L-bGv6IgCnG-7">
          <mxGeometry relative="1" as="geometry">
            <Array as="points" />
          </mxGeometry>
        </mxCell>
        <mxCell id="rHQZIwRg0L-bGv6IgCnG-29" value="" style="curved=1;startArrow=none;endArrow=block;exitX=0.5;exitY=1.01;entryX=0.15;entryY=0;rounded=0;" edge="1" parent="1" source="rHQZIwRg0L-bGv6IgCnG-7" target="rHQZIwRg0L-bGv6IgCnG-8">
          <mxGeometry relative="1" as="geometry">
            <Array as="points">
              <mxPoint x="349" y="813" />
            </Array>
          </mxGeometry>
        </mxCell>
        <mxCell id="rHQZIwRg0L-bGv6IgCnG-30" value="" style="curved=1;startArrow=none;endArrow=block;exitX=0.26;exitY=1.01;entryX=0.5;entryY=0.01;rounded=0;" edge="1" parent="1" source="rHQZIwRg0L-bGv6IgCnG-5" target="rHQZIwRg0L-bGv6IgCnG-9">
          <mxGeometry relative="1" as="geometry">
            <Array as="points">
              <mxPoint x="539" y="529" />
            </Array>
          </mxGeometry>
        </mxCell>
        <mxCell id="rHQZIwRg0L-bGv6IgCnG-31" value="" style="curved=1;startArrow=none;endArrow=block;exitX=0.5;exitY=1.01;entryX=0.15;entryY=0;rounded=0;" edge="1" parent="1" source="rHQZIwRg0L-bGv6IgCnG-9" target="rHQZIwRg0L-bGv6IgCnG-10">
          <mxGeometry relative="1" as="geometry">
            <Array as="points">
              <mxPoint x="539" y="633" />
            </Array>
          </mxGeometry>
        </mxCell>
        <mxCell id="rHQZIwRg0L-bGv6IgCnG-32" value="成功" style="curved=1;startArrow=none;endArrow=block;exitX=0.5;exitY=1;entryX=0.72;entryY=0;rounded=0;" edge="1" parent="1" source="rHQZIwRg0L-bGv6IgCnG-10" target="rHQZIwRg0L-bGv6IgCnG-8">
          <mxGeometry relative="1" as="geometry">
            <Array as="points">
              <mxPoint x="597" y="813" />
            </Array>
          </mxGeometry>
        </mxCell>
        <mxCell id="rHQZIwRg0L-bGv6IgCnG-33" value="失敗" style="curved=1;startArrow=none;endArrow=block;exitX=0.84;exitY=0;entryX=0.74;entryY=1.01;rounded=0;" edge="1" parent="1" source="rHQZIwRg0L-bGv6IgCnG-10" target="rHQZIwRg0L-bGv6IgCnG-5">
          <mxGeometry relative="1" as="geometry">
            <Array as="points">
              <mxPoint x="654" y="633" />
              <mxPoint x="654" y="529" />
            </Array>
          </mxGeometry>
        </mxCell>
        <mxCell id="rHQZIwRg0L-bGv6IgCnG-34" value="" style="curved=1;startArrow=none;endArrow=block;exitX=0.5;exitY=1;entryX=0.5;entryY=0;rounded=0;" edge="1" parent="1" source="rHQZIwRg0L-bGv6IgCnG-8" target="rHQZIwRg0L-bGv6IgCnG-11">
          <mxGeometry relative="1" as="geometry">
            <Array as="points" />
          </mxGeometry>
        </mxCell>
        <mxCell id="rHQZIwRg0L-bGv6IgCnG-35" value="" style="curved=1;startArrow=none;endArrow=block;exitX=0.5;exitY=1;entryX=0.5;entryY=0;rounded=0;" edge="1" parent="1" source="rHQZIwRg0L-bGv6IgCnG-11" target="rHQZIwRg0L-bGv6IgCnG-12">
          <mxGeometry relative="1" as="geometry">
            <Array as="points" />
          </mxGeometry>
        </mxCell>
        <mxCell id="rHQZIwRg0L-bGv6IgCnG-36" value="" style="curved=1;startArrow=none;endArrow=block;exitX=0.5;exitY=1;entryX=0.5;entryY=0;rounded=0;" edge="1" parent="1" source="rHQZIwRg0L-bGv6IgCnG-12" target="rHQZIwRg0L-bGv6IgCnG-13">
          <mxGeometry relative="1" as="geometry">
            <Array as="points" />
          </mxGeometry>
        </mxCell>
        <mxCell id="rHQZIwRg0L-bGv6IgCnG-37" value="閱讀" style="curved=1;startArrow=none;endArrow=block;exitX=0;exitY=0.62;entryX=0.5;entryY=0;rounded=0;" edge="1" parent="1" source="rHQZIwRg0L-bGv6IgCnG-13" target="rHQZIwRg0L-bGv6IgCnG-14">
          <mxGeometry relative="1" as="geometry">
            <Array as="points">
              <mxPoint x="98" y="1315" />
            </Array>
          </mxGeometry>
        </mxCell>
        <mxCell id="rHQZIwRg0L-bGv6IgCnG-38" value="人物關係" style="curved=1;startArrow=none;endArrow=block;exitX=0;exitY=0.74;entryX=0.5;entryY=0;rounded=0;" edge="1" parent="1" source="rHQZIwRg0L-bGv6IgCnG-13" target="rHQZIwRg0L-bGv6IgCnG-15">
          <mxGeometry relative="1" as="geometry">
            <Array as="points">
              <mxPoint x="304" y="1315" />
            </Array>
          </mxGeometry>
        </mxCell>
        <mxCell id="rHQZIwRg0L-bGv6IgCnG-39" value="成就系統" style="curved=1;startArrow=none;endArrow=block;exitX=0.54;exitY=1;entryX=0.5;entryY=0;rounded=0;" edge="1" parent="1" source="rHQZIwRg0L-bGv6IgCnG-13" target="rHQZIwRg0L-bGv6IgCnG-16">
          <mxGeometry relative="1" as="geometry">
            <Array as="points">
              <mxPoint x="510" y="1315" />
            </Array>
          </mxGeometry>
        </mxCell>
        <mxCell id="rHQZIwRg0L-bGv6IgCnG-40" value="社群討論" style="curved=1;startArrow=none;endArrow=block;exitX=1;exitY=0.73;entryX=0.5;entryY=0;rounded=0;" edge="1" parent="1" source="rHQZIwRg0L-bGv6IgCnG-13" target="rHQZIwRg0L-bGv6IgCnG-17">
          <mxGeometry relative="1" as="geometry">
            <Array as="points">
              <mxPoint x="708" y="1315" />
            </Array>
          </mxGeometry>
        </mxCell>
        <mxCell id="rHQZIwRg0L-bGv6IgCnG-41" value="" style="curved=1;startArrow=none;endArrow=block;exitX=0.5;exitY=1;entryX=0;entryY=0.26;rounded=0;" edge="1" parent="1" source="rHQZIwRg0L-bGv6IgCnG-14" target="rHQZIwRg0L-bGv6IgCnG-18">
          <mxGeometry relative="1" as="geometry">
            <Array as="points">
              <mxPoint x="98" y="1430" />
            </Array>
          </mxGeometry>
        </mxCell>
        <mxCell id="rHQZIwRg0L-bGv6IgCnG-42" value="" style="curved=1;startArrow=none;endArrow=block;exitX=0.5;exitY=1;entryX=0.16;entryY=0;rounded=0;" edge="1" parent="1" source="rHQZIwRg0L-bGv6IgCnG-15" target="rHQZIwRg0L-bGv6IgCnG-18">
          <mxGeometry relative="1" as="geometry">
            <Array as="points">
              <mxPoint x="304" y="1430" />
            </Array>
          </mxGeometry>
        </mxCell>
        <mxCell id="rHQZIwRg0L-bGv6IgCnG-43" value="" style="curved=1;startArrow=none;endArrow=block;exitX=0.5;exitY=1;entryX=0.84;entryY=0;rounded=0;" edge="1" parent="1" source="rHQZIwRg0L-bGv6IgCnG-16" target="rHQZIwRg0L-bGv6IgCnG-18">
          <mxGeometry relative="1" as="geometry">
            <Array as="points">
              <mxPoint x="510" y="1430" />
            </Array>
          </mxGeometry>
        </mxCell>
        <mxCell id="rHQZIwRg0L-bGv6IgCnG-44" value="" style="curved=1;startArrow=none;endArrow=block;exitX=0.5;exitY=1;entryX=1;entryY=0.25;rounded=0;" edge="1" parent="1" source="rHQZIwRg0L-bGv6IgCnG-17" target="rHQZIwRg0L-bGv6IgCnG-18">
          <mxGeometry relative="1" as="geometry">
            <Array as="points">
              <mxPoint x="708" y="1430" />
            </Array>
          </mxGeometry>
        </mxCell>
        <mxCell id="rHQZIwRg0L-bGv6IgCnG-45" value="" style="curved=1;startArrow=none;endArrow=block;exitX=0.5;exitY=1;entryX=0.5;entryY=0;rounded=0;entryDx=0;entryDy=0;" edge="1" parent="1" source="rHQZIwRg0L-bGv6IgCnG-18" target="rHQZIwRg0L-bGv6IgCnG-20">
          <mxGeometry relative="1" as="geometry">
            <Array as="points" />
            <mxPoint x="407" y="1582" as="targetPoint" />
          </mxGeometry>
        </mxCell>
        <mxCell id="rHQZIwRg0L-bGv6IgCnG-47" value="" style="curved=1;startArrow=none;endArrow=block;exitX=0.5;exitY=0.99;entryX=0;entryY=0.21;rounded=0;" edge="1" parent="1" source="rHQZIwRg0L-bGv6IgCnG-20" target="rHQZIwRg0L-bGv6IgCnG-21">
          <mxGeometry relative="1" as="geometry">
            <Array as="points">
              <mxPoint x="407" y="1765" />
            </Array>
          </mxGeometry>
        </mxCell>
        <mxCell id="rHQZIwRg0L-bGv6IgCnG-48" value="是" style="curved=1;startArrow=none;endArrow=block;exitX=1;exitY=0.33;entryX=1;entryY=0.65;rounded=0;" edge="1" parent="1" source="rHQZIwRg0L-bGv6IgCnG-21" target="rHQZIwRg0L-bGv6IgCnG-13">
          <mxGeometry relative="1" as="geometry">
            <Array as="points">
              <mxPoint x="813" y="1765" />
              <mxPoint x="813" y="1315" />
            </Array>
          </mxGeometry>
        </mxCell>
        <mxCell id="rHQZIwRg0L-bGv6IgCnG-49" value="否" style="curved=1;startArrow=none;endArrow=block;exitX=0.5;exitY=1;entryX=0.5;entryY=0;rounded=0;entryDx=0;entryDy=0;" edge="1" parent="1" source="rHQZIwRg0L-bGv6IgCnG-21" target="rHQZIwRg0L-bGv6IgCnG-109">
          <mxGeometry relative="1" as="geometry">
            <Array as="points" />
            <mxPoint x="559" y="1986" as="targetPoint" />
          </mxGeometry>
        </mxCell>
        <mxCell id="rHQZIwRg0L-bGv6IgCnG-109" value="結束系統" style="ellipse;whiteSpace=wrap;html=1;" vertex="1" parent="1">
          <mxGeometry x="518.5" y="2000" width="81" height="80" as="geometry" />
        </mxCell>
        <mxCell id="rHQZIwRg0L-bGv6IgCnG-110" value="&lt;font style=&quot;font-size: 13px;&quot;&gt;系統啟動&lt;/font&gt;" style="ellipse;whiteSpace=wrap;html=1;" vertex="1" parent="1">
          <mxGeometry x="462" width="80" height="80" as="geometry" />
        </mxCell>
      </root>
    </mxGraphModel>
  </diagram>
</mxfile>
